<?xml version="1.0" encoding="utf-8"?>
<!-- Generator: Adobe Illustrator 22.1.0, SVG Export Plug-In . SVG Version: 6.00 Build 0)  -->
<svg version="1.1" id="Capa_1" xmlns="http://www.w3.org/2000/svg" xmlns:xlink="http://www.w3.org/1999/xlink" x="0px" y="0px"
	 viewBox="0 0 512 512" style="enable-background:new 0 0 512 512;" xml:space="preserve">
<style type="text/css">
	.st0{filter:url(#Adobe_OpacityMaskFilter);}
	.st1{fill:#E8EDFC;}
	.st2{fill:#CAD9FC;}
	.st3{fill:#FFFFFF;}
	.st4{fill:#428DFF;}
	.st5{mask:url(#SVGID_1_);}
	.st6{fill:#E2934B;}
</style>
<defs>
	<filter id="Adobe_OpacityMaskFilter" filterUnits="userSpaceOnUse" x="0.1" y="0.1" width="511.8" height="511.6">
		<feColorMatrix  type="matrix" values="1 0 0 0 0  0 1 0 0 0  0 0 1 0 0  0 0 0 1 0"/>
	</filter>
</defs>
<mask maskUnits="userSpaceOnUse" x="0.1" y="0.1" width="511.8" height="511.6" id="SVGID_1_">
	<g class="st0">
		<g id="_x30_15---Pizza">
			<g id="Layer_11" transform="translate(1 1)">
				<path id="Shape" class="st1" d="M245,286.4c-6.2,8.2-11,17.5-14.1,27.3c-1,2.2-3.1,3.8-5.5,4.2c-2.4,0.4-4.9-0.3-6.6-2
					C147.7,251.5,17.4,210.5,17.4,210.5c2.5-12.3,6.9-24.1,13.1-35.1c6.4-12,7.2-26.2,2.1-38.8c-2.8-7.2-3.3-15.2-1.5-22.7
					C31.2,113.9,79.5,120.9,245,286.4L245,286.4z"/>
				<path id="Shape_1_" class="st2" d="M219.3,316.4c-29.8,8.5-52.9,33.1-64,46c-5.7,6-13.3,9.9-21.5,11
					c-36.2,7.7-73.7,6.3-109.2-4.1c-27.6-27.6-15.3-70.5-4.1-96.1c5.2-11.6,5.2-24.8,0-36.4c-4.1-8.1-5.1-17.4-2.9-26.2
					c0,0,130.3,41,201.4,105.4L219.3,316.4z"/>
				<g>
					<path id="Shape_2_" class="st1" d="M148.5,493.4c-13.8,13.7-41.4,13.7-69-13.8c-73-73-54.9-110.3-54.9-110.3
						c35.6,10.5,73.3,11.9,109.6,4.1c8.2-1.1,15.8-5,21.5-11C113.9,417.6,183,458.9,148.5,493.4z"/>
					<path id="Shape_3_" class="st1" d="M286.4,245L245,286.4C79.5,120.9,31.2,113.9,31.2,113.9c2-21.2,11.8-40.9,27.6-55.2
						C73,43,92.7,33.1,113.9,31.1C113.9,31.1,120.9,79.5,286.4,245L286.4,245z"/>
					<path id="Shape_4_" class="st1" d="M313.7,230.9c-9.8,3.1-19.1,7.9-27.3,14.1C120.9,79.5,113.9,31.2,113.9,31.2
						c7.5-1.9,15.5-1.4,22.7,1.5c12.6,5.1,26.8,4.3,38.8-2.1c10.9-6.2,22.8-10.6,35.1-13.1c0,0,41,130.3,105.4,201.4
						c1.7,1.8,2.4,4.2,2,6.6C317.5,227.8,315.9,229.9,313.7,230.9z"/>
				</g>
				<path id="Shape_5_" class="st2" d="M373.4,133.8c-1.1,8.2-5,15.8-11,21.5c-12.9,11.1-37.3,34.1-46,64v-0.5
					C251.9,147.7,211,17.4,211,17.4c8.8-2.2,18.1-1.2,26.2,2.9c11.6,5.2,24.8,5.2,36.4,0c25.6-11.2,68.3-23.5,96.1,4.1
					C380,60,381.3,97.6,373.4,133.8z"/>
				<path id="Shape_6_" class="st1" d="M493.4,148.5c-34.1,34.1-75.9-34.1-131.1,6.8c6-5.7,9.9-13.3,11-21.5
					c7.7-36.2,6.3-73.7-4.1-109.2c0,0,37.4-18.1,110.3,54.9C507.2,107.1,507.2,134.7,493.4,148.5L493.4,148.5z"/>
				<path id="Shape_7_" class="st2" d="M479.6,79.5c-68.3-68.3-105.7-57-109.9-55.4c18.4,4.3,46.6,17.7,84.3,55.4
					c34.1,34.1,25.6,67.6,2.2,76.8c12.9,5,27.5,1.9,37.2-7.9C507.2,134.7,507.2,107.1,479.6,79.5z"/>
			</g>
			<path id="Shape_8_" class="st3" d="M25.6,370.3c0,0-18.1,37.4,54.9,110.3c21.6,21.5,42.7,26.2,58,20.7
				c-12.4-4.1-23.5-11.3-32.4-20.7c-73-73-54.9-110.3-54.9-110.3c-27.6-27.6-15.3-70.5-4.1-96.1c5.2-11.6,5.2-24.8,0-36.4
				c-4.1-8.1-5.1-17.4-2.9-26.2c2.5-12.3,6.9-24.1,13.1-35.1c6.4-12,7.2-26.2,2.1-38.8c-2.8-7.2-3.3-15.2-1.5-22.7
				c1.9-21.2,11.7-40.9,27.4-55.2c13.2-14,30.6-23.4,49.5-27c-6.4-2-13.3-2.2-19.9-0.6c-21.2,2-40.9,11.8-55.2,27.6
				C44,74,34.1,93.7,32.1,114.9c-1.9,7.5-1.4,15.5,1.5,22.7c5.1,12.6,4.3,26.8-2.1,38.8c-6.2,10.9-10.6,22.8-13.1,35.1
				c-2.2,8.8-1.2,18.1,2.9,26.2c5.2,11.6,5.2,24.8,0,36.4C10,299.8-2.3,342.6,25.6,370.3z"/>
			<path id="Shape_9_" class="st3" d="M49.4,429.7L35,438.9c-12.6-20.2-26.5-50.3-17.4-71.9l15.4,7.3c0.5-1.1-3.8,7.3,2.3,27.1
				C38.9,411.3,43.6,420.8,49.4,429.7L49.4,429.7z"/>
			<g>
				<path id="Shape_10_" class="st4" d="M27.4,412.3c-4.7,0-8.5-3.8-8.5-8.5c0-4.7,3.8-8.5,8.5-8.5s8.5,3.8,8.5,8.5
					C35.9,408.5,32.1,412.3,27.4,412.3z"/>
				<path id="Shape_11_" class="st4" d="M19.3,376.2c0.9,1,2.1,1.7,3.3,2c21.7,6.6,44.2,9.8,66.9,9.7c15.8,0,31.6-1.8,47-5.4
					c-14,46.8,30.7,81.6,6.6,105.7c-6.5,5.6-15.3,7.8-23.6,5.7c-9.9-2.3-19-7.2-26.5-14c-8.2-7.5-15.9-15.4-23-23.9
					c-7.4-8.3-14.1-17.2-20.1-26.5c-1.2-2-3.1-3.5-5.4-4.1s-4.7-0.2-6.7,1.1c-2,1.2-3.4,3.1-3.9,5.4c-0.5,2.3-0.1,4.6,1.1,6.6
					c11.5,17.3,24.8,33.4,39.7,48c2.3,2.1,4.4,4.4,6.9,6.3c29.5,24.9,58.6,22.6,73.9,7.3c20-19.9,11.7-42.7,4.4-62.4
					c-8.5-22.5-16-43.7,3.2-69.4c14.8-18.8,34.4-33.4,56.7-42.1c7.8,2.8,16.4-1,19.8-8.5c2.9-8.9,7.1-17.3,12.5-24.9
					c47-46.9,41.2-43.9,59-50.8c7.9-3.1,14.4-5.3,16.2-14.4c0.5-2.9,0.3-5.8-0.7-8.5c8.7-22.3,23.2-41.9,42.1-56.7
					c39.4-29.4,69.5,4.9,102.4,4.9c12.2-0.1,23.8-5.6,31.5-15.1c7.7-9.5,10.9-21.9,8.6-33.9c-3.4-16.9-12-32.2-24.7-43.9
					c-61.4-61.8-99.8-61.9-114-58.8c-23.6-20-59.7-20.9-101.6-2.3c-9.4,4.2-20.1,4.2-29.4,0c-9.9-5-21.3-6.2-32.1-3.4
					c-13,2.7-25.4,7.4-36.9,13.9c-9.8,5.2-21.4,5.9-31.7,1.7c-8.6-3.3-17.9-3.9-26.9-1.9c-42.1,1.9-88.1,47.9-89.9,89.9
					c-2.1,8.9-1.4,18.3,1.9,26.9c4.2,10.3,3.6,21.9-1.5,31.7c-6.5,11.5-11.2,24-13.9,36.9c-2.7,10.8-1.5,22.1,3.4,32.1
					c4.2,9.4,4.2,20.1,0,29.4C-6.2,315.7-4.2,352.9,19.3,376.2L19.3,376.2z M38.9,180.7c7.6-14.2,8.6-31,2.7-46
					c-0.9-2.5-1.5-5.2-1.8-7.9c19.9,9.1,75.4,42.7,194.8,161.4c-4,6.9-7.3,14.2-9.9,21.8c-62.7-56.3-167.2-93.9-196.3-104
					C30.9,197.1,34.4,188.6,38.9,180.7L38.9,180.7z M474.5,86.8c10.4,9,17.5,21.1,20.4,34.6c1.5,7.9-0.8,16.1-6.2,22.1
					c-24.1,24.1-58.9-20.6-105.7-6.6c7.6-34.6,7-70.5-1.6-104.9c12.8-0.3,44.1,5.5,93.2,54.5V86.8z M277.7,29
					C299,19.6,338.2,7.4,363,30c9.3,33.5,10.5,68.8,3.3,102.9c-0.8,6.5-3.8,12.5-8.5,17.1c-18.1,14.7-32.9,33.1-43.3,53.9
					c-47.5-58.4-81.1-148-91.4-178.3c3.8,0.4,7.5,1.5,11,3.1C247.9,35,263.8,35.1,277.7,29z M180.7,38.9c8.1-4.5,16.7-8,25.6-10.4
					c46.6,137.8,103.3,194.7,104.2,196.3c-7.6,2.7-14.9,6-21.9,10C169.2,115,135.9,59.7,126.8,39.9c2.7,0.3,5.3,0.9,7.9,1.8
					C149.7,47.5,166.5,46.5,180.7,38.9L180.7,38.9z M109,41.5c7.6,19.5,38.8,76.3,166.4,204.8L246,275.6
					C118,148.1,61,116.8,41.2,109.2C49.4,75.8,75.5,49.6,109,41.5L109,41.5z M203.9,314.5c-20.9,10.4-39.3,25.2-53.9,43.3
					c-4.6,4.7-10.6,7.7-17.1,8.5c-34.1,7.2-69.4,6-102.9-3.3c-22.5-24.8-10.4-64.3-0.9-85.3c6.2-13.8,6.2-29.7,0-43.5
					c-1.7-3.5-2.9-7.2-3.4-11C55.9,233.5,145.5,267,203.9,314.5z"/>
				<path id="Shape_12_" class="st4" d="M52.1,290.1c4.5,1.5,9.3-0.8,10.8-5.3c2.3-6.7,3.8-13.6,4.4-20.7c0.3-2.3-0.3-4.7-1.7-6.5
					c-1.5-1.8-3.6-3-5.9-3.2c-4.7-0.4-8.9,3-9.3,7.7c-0.5,5.8-1.7,11.5-3.6,17.1c-0.8,2.1-0.6,4.5,0.4,6.6
					C48.2,287.8,50,289.4,52.1,290.1L52.1,290.1z"/>
				<path id="Shape_13_" class="st4" d="M45.4,348.8c2.9,0,5.6-1.5,7.2-4s1.7-5.6,0.5-8.2c-2.3-6.2-2.6-13-1-19.5
					c0.8-4.7-2.4-9.2-7.1-10s-9.2,2.4-10,7.1C33.2,326.1,33.3,348.8,45.4,348.8L45.4,348.8z"/>
				<path id="Shape_14_" class="st4" d="M174.8,76.8c7-1.3,13.7-3.7,20-7.1c3-1.2,5.1-4,5.4-7.2c0.3-3.2-1.3-6.3-4.1-8
					c-2.8-1.7-6.3-1.6-9,0.2c-4.6,2.3-9.4,4.1-14.3,5.4c-4.2,1-6.9,5.1-6.4,9.4C166.9,73.6,170.5,76.8,174.8,76.8L174.8,76.8z"/>
			</g>
		</g>
	</g>
</mask>
<g class="st5">
	<path class="st6" d="M486.4,74.5c-61.4-61.8-99.8-61.9-114-58.8c-23.6-20-59.7-20.9-101.6-2.3c-9.4,4.2-20.1,4.2-29.4,0
		c-9.9-5-21.3-6.2-32.1-3.4c-13,2.7-25.4,7.4-36.9,13.9c-9.8,5.2-21.4,5.9-31.7,1.7c-8.6-3.3-17.9-3.9-26.9-1.9
		c-42.1,1.9-88.1,47.9-89.9,89.9c-2.1,8.9-1.4,18.3,1.9,26.9c4.2,10.3,3.6,21.9-1.5,31.7c-6.5,11.5-11.2,24-13.9,36.9
		c-2.7,10.8-1.5,22.1,3.4,32.1c4.2,9.4,4.2,20.1,0,29.4C-5.2,313.4-4.3,349,15.8,372.5c-5,21,7.6,47.9,19.2,66.4l0.1-0.1
		c11.5,17.3,24.7,33.3,39.6,47.8c2.3,2.1,4.4,4.4,6.9,6.3c29.5,24.9,58.6,22.6,73.9,7.3c20-19.9,11.7-42.7,4.4-62.4
		c-8.5-22.5-16-43.7,3.2-69.4c14.8-18.8,34.4-33.4,56.7-42.1c7.8,2.8,16.4-1,19.8-8.5c2.9-8.9,7.1-17.3,12.5-24.9
		c47-46.9,41.2-43.9,59-50.8c7.9-3.1,14.4-5.3,16.2-14.4c0.5-2.9,0.3-5.8-0.7-8.5c8.7-22.3,23.2-41.9,42.1-56.7
		c39.4-29.4,69.5,4.9,102.4,4.9c12.2-0.1,23.8-5.6,31.5-15.1c7.7-9.5,10.9-21.9,8.6-33.9C507.8,101.5,499.1,86.1,486.4,74.5z"/>
</g>
</svg>
