<?xml version="1.0" encoding="utf-8"?>
<!-- Generator: Adobe Illustrator 22.1.0, SVG Export Plug-In . SVG Version: 6.00 Build 0)  -->
<svg version="1.1" id="Capa_1" xmlns="http://www.w3.org/2000/svg" xmlns:xlink="http://www.w3.org/1999/xlink" x="0px" y="0px"
	 viewBox="0 0 512 512" style="enable-background:new 0 0 512 512;" xml:space="preserve">
<style type="text/css">
	.st0{filter:url(#Adobe_OpacityMaskFilter);}
	.st1{fill:#CAD9FC;}
	.st2{fill:#E8EDFC;}
	.st3{fill:#FFFFFF;}
	.st4{fill:#428DFF;}
	.st5{mask:url(#SVGID_1_);fill:#E2934B;}
</style>
<defs>
	<filter id="Adobe_OpacityMaskFilter" filterUnits="userSpaceOnUse" x="81.1" y="0" width="349.9" height="512">
		<feColorMatrix  type="matrix" values="1 0 0 0 0  0 1 0 0 0  0 0 1 0 0  0 0 0 1 0"/>
	</filter>
</defs>
<mask maskUnits="userSpaceOnUse" x="81.1" y="0" width="349.9" height="512" id="SVGID_1_">
	<g class="st0">
		<g id="_x30_20---Elephant-Ear">
			<g id="Layer_11" transform="translate(1 1)">
				<path id="Shape" class="st1" d="M421.4,400.1c0,59.7-34.1,102.4-128,102.4c-101.2,0-204.8-93.2-204.8-247.5S191.5,7.5,293.4,7.5
					c93.9,0,128,42.7,128,102.4c0,82.5-66.6,151.6-142.1,144.4c-49.7-5-71.3-36.4-71.3-67.6c0-54.3,28.2-101.5,71.7-109.7
					c-52,8.5-81.1,65.7-87.4,144c-6.8,79.7,8.5,199.3,87.4,211.8c-43.5-8.2-71.7-55.4-71.7-109.7c0-31.2,21.5-62.5,70.8-67.6h0.5
					C355,248.3,421.4,317.9,421.4,400.1z"/>
				<path id="Shape_1_" class="st2" d="M192.4,289.1c6.3,78.3,35.4,135.8,87.4,144c-43.5-8.4-71.7-55.6-71.7-109.9
					c0-31.2,21.5-62.5,70.8-67.6h0.5c56.7,7.1,116.4,64.5,116.4,144.4c0,56.4-30.5,97.6-113.1,102.4C191,496,88.6,411.1,88.6,255
					S191,14,282.7,8c82.6,4.4,113.1,45.6,113.1,102c0,80-59.7,137.3-116.5,144.4c-49.7-5-71.3-36.4-71.3-67.6
					c0-54.3,28.2-101.5,71.7-109.7c-52,8.5-81.1,65.7-87.4,144V289.1z"/>
			</g>
			<path id="Shape_2_" class="st3" d="M294.4,503.5h14.4c-96.7-7-193.6-98-193.6-247.5S211.5,15.5,308.8,9
				c-4.7-0.4-9.5-0.4-14.4-0.4C193.5,8.5,89.6,101.1,89.6,256S194.2,503.5,294.4,503.5z"/>
			<path id="Shape_3_" class="st3" d="M88.6,186.5l17.1,3.7c-2.5,10.8-4.3,21.7-5.4,32.7c-1.6,11-1.5,22.1-2.1,33.2H81.1
				c0.7-11.6,0.6-23.3,1.9-34.9C84.1,209.4,86,197.9,88.6,186.5z"/>
			<g>
				<path id="Shape_4_" class="st4" d="M91.6,230.4c-4.7,0-8.5-3.8-8.5-8.5s3.8-8.5,8.5-8.5s8.5,3.8,8.5,8.5S96.4,230.4,91.6,230.4z
					"/>
				<path id="Shape_5_" class="st4" d="M430.9,110.9C430.9,60.3,407.2,0,294.4,0C218.4,0,147.6,51.6,114,116.7
					c-11.8,21.9-20.4,45.4-25.6,69.7c-0.8,4.5,2.2,8.9,6.7,9.8c2.2,0.5,4.5,0.1,6.5-1.1c1.9-1.2,3.3-3.2,3.8-5.4
					C110,167,118,145,129,124.5c30.6-59.2,95.9-107.4,165.4-107.4c79.3,0,119.5,31.6,119.5,93.9c0,64.4-51.2,136.5-119.5,136.5
					c-56.7,0-76.8-32.2-76.8-59.7c0-58.4,33-102.4,76.8-102.4c20.5,0,42.7,13.1,42.7,34.1c0,15.3-31.3,35.9-46.5,43.6
					c-3,1.2-5,4-5.2,7.2c-0.3,3.2,1.3,6.3,4,7.9s6.2,1.7,8.9,0.1c5.7-2.8,55.9-28.8,55.9-58.8c0-72.2-170.7-100.1-170.7,136.5
					s170.7,209.1,170.7,136.5c0-30-50.2-56-55.9-58.8c-2.7-1.6-6.2-1.6-8.9,0.1c-2.7,1.7-4.3,4.7-4,7.9c0.3,3.2,2.3,6,5.2,7.2
					c15.2,7.7,46.5,28.3,46.5,43.6c0,21.1-22.2,34.1-42.7,34.1c-43.8,0-76.8-44-76.8-102.4c0-27.6,20.1-59.7,76.8-59.7
					c68.3,0,119.5,72.1,119.5,136.5c0,62.3-40.2,93.9-119.5,93.9c-96.5,0-196.3-89.3-196.3-238.9c0-4.7-3.8-8.5-8.5-8.5
					s-8.5,3.8-8.5,8.5c0,160.3,108.5,256,213.3,256c112.8,0,136.5-60.3,136.5-110.9c0.8-63.1-36.6-120.4-94.7-145.1
					C394.3,231.4,431.7,174,430.9,110.9z M203.4,303.8c-3.8-31.7-3.8-63.8,0-95.6c6.6,21.9,22.9,39.6,44.3,47.8
					C226.3,264.2,210,281.9,203.4,303.8z"/>
				<path id="Shape_6_" class="st4" d="M294.4,136.5c4.7,0,8.5-3.8,8.5-8.5c0-4.7-3.8-8.5-8.5-8.5c-28.3,0-51.2,22.9-51.2,51.2
					s22.9,51.2,51.2,51.2c56.2-0.8,101.6-46.2,102.4-102.4c0-25.6-10-85.3-102.4-85.3c-80.7,0-162.1,68.3-162.1,221.9
					s81.4,221.9,162.1,221.9c92.4,0,102.4-59.7,102.4-85.3c-0.8-56.2-46.2-101.6-102.4-102.4c-28.3,0-51.2,22.9-51.2,51.2
					c0,28.3,22.9,51.2,51.2,51.2c4.7,0,8.5-3.8,8.5-8.5s-3.8-8.5-8.5-8.5c-18.9,0-34.1-15.3-34.1-34.1c0-18.9,15.3-34.1,34.1-34.1
					c46.9,0.6,84.7,38.5,85.3,85.3c0,31.1-14.8,68.3-85.3,68.3c-100.2,0-145.1-102.4-145.1-204.8S194.2,51.2,294.4,51.2
					c70.5,0,85.3,37.1,85.3,68.3c-0.6,46.9-38.5,84.7-85.3,85.3c-18.9,0-34.1-15.3-34.1-34.1S275.5,136.5,294.4,136.5z"/>
			</g>
		</g>
	</g>
</mask>
<path class="st5" d="M336.2,256c58.1-24.6,95.5-82,94.7-145.1C430.9,60.3,407.2,0,294.4,0C218.4,0,147.6,51.6,114,116.7
	c-11.8,21.9-20.4,45.4-25.6,69.7c-0.1,0.4-0.1,0.9-0.1,1.3c-2.4,11-4.2,22.1-5.3,33.3c-1.2,11.3-1.2,22.7-1.8,34c0,0.3,0,0.6,0,0.9
	c0,160.3,108.5,256,213.3,256c112.8,0,136.5-60.3,136.5-110.9C431.7,338,394.3,280.6,336.2,256z M203.4,303.8
	c-3.8-31.7-3.8-63.8,0-95.6c6.6,21.9,22.9,39.6,44.3,47.8C226.3,264.2,210,281.9,203.4,303.8z"/>
</svg>
