<?xml version="1.0" encoding="utf-8"?>
<!-- Generator: Adobe Illustrator 22.1.0, SVG Export Plug-In . SVG Version: 6.00 Build 0)  -->
<svg version="1.1" id="Capa_1" xmlns="http://www.w3.org/2000/svg" xmlns:xlink="http://www.w3.org/1999/xlink" x="0px" y="0px"
	 viewBox="0 0 512 512" style="enable-background:new 0 0 512 512;" xml:space="preserve">
<style type="text/css">
	.st0{filter:url(#Adobe_OpacityMaskFilter);}
	.st1{fill:#E8EDFC;}
	.st2{fill:#CAD9FC;}
	.st3{fill:#A4C2F7;}
	.st4{fill:#FFFFFF;}
	.st5{fill:#428DFF;}
	.st6{mask:url(#SVGID_1_);}
	.st7{fill:#E8A167;}
</style>
<defs>
	<filter id="Adobe_OpacityMaskFilter" filterUnits="userSpaceOnUse" x="-0.2" y="0" width="512.2" height="512">
		<feColorMatrix  type="matrix" values="1 0 0 0 0  0 1 0 0 0  0 0 1 0 0  0 0 0 1 0"/>
	</filter>
</defs>
<mask maskUnits="userSpaceOnUse" x="-0.2" y="0" width="512.2" height="512" id="SVGID_1_">
	<g class="st0">
		<g id="_x30_03---Baked-Bread">
			<g id="Layer_11" transform="translate(1 9)">
				<path id="Shape" class="st1" d="M263.5,227c-1.2,35.9-4.9,71.8-11.1,107.2c-1.8,8.8-9.6,15.2-18.6,15.2H37.6
					c-9.2,0.2-17.1-6.2-18.9-15.2C12.4,298.8,8.7,263,7.5,227c0-20.8,4.7-32.2,11.6-37.8c1.3-1.1,2.2-2.7,2.2-4.4
					c0.1-1.7-0.6-3.4-1.8-4.6c-5.5-5-12-15.8-12-38.1c0-42.7,33.1-61.3,76.1-56.6c31.8,4,36.8-19.6,75.5-3.8
					c8.9,3.7,18.7,5,28.2,3.8c43.1-4.7,76.1,13.9,76.1,56.6c0,22.3-6.6,33-12,38.1c-1.9,1.8-2.4,4.7-1.2,7
					C251.8,190.8,263.5,193.8,263.5,227z"/>
				<path id="Shape_1_" class="st2" d="M251.9,189.2c-1.4-1.1-2.2-2.7-2.3-4.4c-0.1-1.7,0.6-3.4,1.9-4.6c5.5-5,12-15.8,12-38.1
					c0-42.7-32.6-61.2-75.9-56.6c25.6,3.4,50.3,19.5,50.3,56.6c0,22.3-6.6,33-12,38.1c-1.9,1.8-2.4,4.7-1.2,7
					c1.5,3.5,13.2,6.6,13.2,39.8c-1.2,35.9-4.9,71.8-11.1,107.2c-1.8,8.8-9.6,15.2-18.6,15.2h25.6c9,0,16.8-6.3,18.6-15.2
					c6.2-35.4,9.9-71.2,11.1-107.2C263.5,206.2,258.8,194.9,251.9,189.2z"/>
				<path id="Shape_2_" class="st1" d="M485.4,383.5H24.6c-9.4,0-17.1-7.6-17.1-17.1c0-9.4,7.6-17.1,17.1-17.1h460.8
					c9.4,0,17.1,7.6,17.1,17.1C502.5,375.9,494.8,383.5,485.4,383.5z"/>
				<path id="Shape_3_" class="st2" d="M485.4,349.4h-25.6c9.4,0,17.1,7.6,17.1,17.1c0,9.4-7.6,17.1-17.1,17.1h25.6
					c9.4,0,17.1-7.6,17.1-17.1C502.5,357,494.8,349.4,485.4,349.4z"/>
				<path id="Shape_4_" class="st1" d="M502.5,227c-1.2,35.9-4.9,71.8-11.1,107.2c-1.8,8.8-9.6,15.2-18.6,15.2l-238.9,0
					c9,0,16.8-6.3,18.6-15.2c6.2-35.4,9.9-71.2,11.1-107.2c0-33.2-11.7-36.4-13.2-39.8c253.2,0,233.9,0,237.6-0.4
					C489.4,189.1,502.5,192.5,502.5,227z"/>
				<path id="Shape_5_" class="st2" d="M490.9,189.2c-1.1-0.7-2.1-1.5-3-2.4c-3.5,0.6,0.9,0.4-25.1,0.4c0.6,0.6,1.5,1.1,2.5,2
					c6.9,5.6,11.6,17.1,11.6,37.8c-1.2,35.9-4.9,71.8-11.1,107.2c-1.8,8.8-9.6,15.2-18.6,15.2l25.6,0c9,0,16.8-6.3,18.6-15.2
					c6.2-35.4,9.9-71.2,11.1-107.2C502.5,206.2,497.8,194.9,490.9,189.2L490.9,189.2z"/>
				<path id="Shape_6_" class="st1" d="M487.9,187.3c-3.7,0.6,15.6,0.4-237.6,0.4c-1.2-2.3-0.7-5.2,1.2-7c5.5-5,12-15.8,12-38.1
					c0-42.7-32.6-57.3-61.1-57.3h240.3c28.4,0,59.7,15,59.7,57.3C502.5,175.8,484.6,182,487.9,187.3z"/>
				<path id="Shape_7_" class="st2" d="M502.5,142.2c0-42.7-31.3-57.3-59.7-57.3h-25.6c28.4,0,59.7,15,59.7,57.3
					c0,33.6-17.8,39.8-14.6,44.6l-2.5,0.4c29.3,0,24.6,0,28.1-0.4C484.5,181.9,502.5,175.9,502.5,142.2z"/>
				<g>
					<path id="Shape_8_" class="st3" d="M41.7,494.5c-9.4,0-17.1-7.6-17.1-17.1v-93.9h34.1v93.9C58.7,486.8,51.1,494.5,41.7,494.5z"
						/>
					<path id="Shape_9_" class="st3" d="M237.9,494.5c-9.4,0-17.1-7.6-17.1-17.1v-93.9H255v93.9C255,486.8,247.4,494.5,237.9,494.5z
						"/>
					<path id="Shape_10_" class="st3" d="M468.3,494.5c-9.4,0-17.1-7.6-17.1-17.1v-93.9h34.1v93.9
						C485.4,486.8,477.8,494.5,468.3,494.5z"/>
				</g>
			</g>
			<path id="Shape_11_" class="st4" d="M8.5,375.5c0,9.4,7.6,17.1,17.1,17.1v93.9c0,7.1,4.5,13.4,11.1,15.9
				c6.6,2.5,14.1,0.6,18.8-4.7c-2.7-3.1-4.2-7.1-4.3-11.2v-93.9c-9.4,0-17.1-7.6-17.1-17.1c0-9.4,7.6-17.1,17.1-17.1h12.6
				c-9,0-16.8-6.3-18.6-15.2C39,307.8,35.3,272,34.1,236c0-20.8,4.7-32.2,11.6-37.8c1.3-1.1,2-2.8,2-4.5c0-1.7-0.7-3.3-2-4.5
				c-5-5-11.6-15.8-11.6-38.1c0-34.1,21.1-52.7,51.2-56.5h-0.7c-43-4.8-76.1,13.8-76.1,56.5c0,22.3,6.6,33,12,38.1
				c1.2,1.2,1.9,2.9,1.8,4.6c-0.1,1.7-0.9,3.3-2.2,4.4c-6.9,5.6-11.6,17.1-11.6,37.8c1.2,35.9,4.9,71.8,11.1,107.2
				c1.8,8.8,9.6,15.2,18.6,15.2H25.6C16.2,358.4,8.5,366,8.5,375.5z"/>
			<g id="Layer_10" transform="translate(-1)">
				<path id="Shape_12_" class="st4" d="M3.3,276.3l17.1-1.5c2.1,22.4,4.6,45.1,8.5,66.8l-17.1,3.3C7.9,321.9,5.4,299.3,3.3,276.3
					L3.3,276.3z"/>
				<g>
					<path id="Shape_13_" class="st5" d="M15.7,318c-4.7,0-8.5-3.8-8.5-8.5s3.8-8.5,8.5-8.5s8.5,3.8,8.5,8.5S20.4,318,15.7,318z"/>
					<path id="Shape_14_" class="st5" d="M111.9,135.6c6.2-1.1,12.3-2.8,18.2-5.3c5.5-2.3,6.2-2.3,7.4-2.3c4.7,0,8.5-3.8,8.5-8.5
						c0-4.7-3.8-8.5-8.5-8.5c-9.2,0-13.1,4.6-27.5,7.9c-4.1,1-6.9,5-6.4,9.2C104.1,132.3,107.7,135.5,111.9,135.6L111.9,135.6z"/>
					<path id="Shape_15_" class="st5" d="M69.3,136.5c4.7,0,8.5-3.8,8.5-8.5c0-4.7-3.8-8.5-8.5-8.5c-15.5,0-34.1,6.1-34.1,31.7
						c-0.1,4.3,0.4,8.7,1.3,12.9c0.5,3.2,2.7,5.8,5.8,6.8c3,1,6.4,0.2,8.7-2.1c2.3-2.3,3.1-5.6,2.1-8.7c-0.6-3-0.8-6-0.8-9
						C52.2,145.1,52.2,136.5,69.3,136.5L69.3,136.5z"/>
					<path id="Shape_16_" class="st5" d="M444.7,85.3c-244.8,0-245.6-0.4-256,0.9c-21.9,2.8-27.5-9.4-51.2-9.4s-28.8,12.1-51.2,9.4
						c-47.8-6-85.3,17.9-85.3,65c0,22.7,6.5,35.3,12.7,42.7c-17.1,16.3-13.2,50.5-10.4,82.9c0.4,4.7,4.6,8.2,9.3,7.8
						c4.7-0.4,8.2-4.6,7.8-9.3c-1.7-19.2-6.6-60.1,6.2-70.4c3.3-2.6,5.2-6.5,5.4-10.7c0.2-4.2-1.5-8.2-4.5-11.1
						c-3.6-3.2-9.4-11.6-9.4-31.7c0-37.5,30-52.7,66.5-48s37.7-19.1,73.4-4.4c10.3,4.3,21.5,5.8,32.6,4.4
						c35.9-4.5,66.5,10.1,66.5,48c0,20.1-5.8,28.6-9.3,31.8c-3,2.9-4.7,6.9-4.5,11.1c0.1,4.2,2.1,8.1,5.3,10.7
						c5.5,4.4,8.5,15.2,8.5,31.1c-1.2,35.3-4.8,70.6-10.9,105.4c-0.9,4.9-5.2,8.5-10.2,8.5H39.6c-5,0-9.3-3.6-10.2-8.5
						c-0.9-4.7-5.5-7.8-10.2-6.9s-7.8,5.5-6.9,10.2c0.6,2.7,1.6,5.3,2.9,7.8C5.9,357,0.3,366.7,1,376.9c0.6,10.3,7.4,19.2,17.1,22.6
						v86.9c0,14.1,11.5,25.6,25.6,25.6s25.6-11.5,25.6-25.6v-85.3h145.1v85.3c0,14.1,11.5,25.6,25.6,25.6
						c14.1,0,25.6-11.5,25.6-25.6v-85.3h179.2v85.3c0,14.1,11.5,25.6,25.6,25.6c14.1,0,25.6-11.5,25.6-25.6v-86.9
						c9.6-3.5,16.2-12.3,16.8-22.5c0.6-10.2-4.8-19.7-13.9-24.4c1.3-2.4,2.3-5.1,2.9-7.8c6.3-36,10.1-72.4,11.3-108.9
						c0-20.5-4.2-34.1-12.9-42.7c9.1-12.1,13.6-27,12.9-42.2C513,102.4,476.2,85.3,444.7,85.3L444.7,85.3z M253.6,102.4h191.1
						c12,0,51.2,3.5,51.2,48.8c0.5,13.3-4,26.3-12.6,36.5H265.5c6.2-11.1,9.2-23.8,8.5-36.5C274.8,132.7,267.3,114.8,253.6,102.4z
						 M274.1,236c0.4-10.6-1.3-21.3-5.1-31.2h218.5c4.9,3.2,8.5,13.7,8.5,31.2c-1.2,35.3-4.8,70.5-10.9,105.3
						c-0.9,4.9-5.2,8.5-10.2,8.5H261.4C266.8,336.2,274.1,259.6,274.1,236z M52.2,486.4c0,4.7-3.8,8.5-8.5,8.5s-8.5-3.8-8.5-8.5
						v-85.3h17.1V486.4z M248.5,486.4c0,4.7-3.8,8.5-8.5,8.5c-4.7,0-8.5-3.8-8.5-8.5v-85.3h17.1V486.4z M478.9,486.4
						c0,4.7-3.8,8.5-8.5,8.5c-4.7,0-8.5-3.8-8.5-8.5v-85.3h17.1V486.4z M487.4,384H26.6c-4.7,0-8.5-3.8-8.5-8.5
						c0-4.7,3.8-8.5,8.5-8.5h460.8c4.7,0,8.5,3.8,8.5,8.5C495.9,380.2,492.1,384,487.4,384z"/>
					<path id="Shape_17_" class="st5" d="M205.8,59.7c0,4.7,3.8,8.5,8.5,8.5s8.5-3.8,8.5-8.5c0-2.3,8.5-5.9,8.5-17.1
						s-8.5-14.8-8.5-17.1s8.5-5.9,8.5-17.1c0-4.7-3.8-8.5-8.5-8.5c-4.7,0-8.5,3.8-8.5,8.5c0,2.3-8.5,5.8-8.5,17.1s8.5,14.8,8.5,17.1
						S205.8,48.6,205.8,59.7z"/>
					<path id="Shape_18_" class="st5" d="M248.5,59.7c0,4.7,3.8,8.5,8.5,8.5c4.7,0,8.5-3.8,8.5-8.5c0-2.3,8.5-5.9,8.5-17.1
						s-8.5-14.8-8.5-17.1s8.5-5.9,8.5-17.1c0-4.7-3.8-8.5-8.5-8.5S257,3.8,257,8.5c0,2.3-8.5,5.8-8.5,17.1s8.5,14.8,8.5,17.1
						S248.5,48.6,248.5,59.7z"/>
					<path id="Shape_19_" class="st5" d="M291.1,59.7c0,4.7,3.8,8.5,8.5,8.5s8.5-3.8,8.5-8.5c0-2.3,8.5-5.9,8.5-17.1
						s-8.5-14.8-8.5-17.1s8.5-5.9,8.5-17.1c0-4.7-3.8-8.5-8.5-8.5s-8.5,3.8-8.5,8.5c0,2.3-8.5,5.8-8.5,17.1s8.5,14.8,8.5,17.1
						S291.1,48.6,291.1,59.7z"/>
				</g>
			</g>
		</g>
	</g>
</mask>
<g class="st6">
	<path class="st7" d="M512,236c0-20.5-4.2-34.1-12.9-42.7c9.1-12.1,13.6-27,12.9-42.2c0-48.8-36.8-65.9-68.3-65.9v0
		c-244.8,0-245.6-0.4-256,0.9c-21.9,2.8-27.5-9.4-51.2-9.4c-23.7,0-28.8,12.1-51.2,9.4c-47.8-6-85.3,17.9-85.3,65
		c0,22.7,6.5,35.3,12.7,42.7c-17.1,16.3-13.2,50.5-10.4,82.9c0,0.3,0.1,0.6,0.1,0.9c2.1,22.5,4.6,44.7,8.4,67.3l0.5-0.1
		c0.6,2.7,1.6,5.2,2.9,7.6C4.9,357-0.7,366.7,0,376.9c0.6,10.3,7.4,19.2,17.1,22.6v86.9c0,14.1,11.5,25.6,25.6,25.6
		c14.1,0,25.6-11.5,25.6-25.6v-85.3h145.1v85.3c0,14.1,11.5,25.6,25.6,25.6s25.6-11.5,25.6-25.6v-85.3h179.2v85.3
		c0,14.1,11.5,25.6,25.6,25.6s25.6-11.5,25.6-25.6v-86.9c9.6-3.5,16.2-12.3,16.8-22.5c0.6-10.2-4.8-19.7-13.9-24.4
		c1.3-2.4,2.3-5.1,2.9-7.8C507.1,308.9,510.8,272.5,512,236z"/>
	<path class="st7" d="M213.3,68.3c4.7,0,8.5-3.8,8.5-8.5c0-2.3,8.5-5.9,8.5-17.1c0-11.2-8.5-14.8-8.5-17.1c0-2.2,8.5-5.9,8.5-17.1
		c0-4.7-3.8-8.5-8.5-8.5s-8.5,3.8-8.5,8.5c0,2.3-8.5,5.8-8.5,17.1c0,11.3,8.5,14.8,8.5,17.1c0,2.3-8.5,5.9-8.5,17.1
		C204.8,64.4,208.6,68.3,213.3,68.3z"/>
	<path class="st7" d="M256,68.3c4.7,0,8.5-3.8,8.5-8.5c0-2.3,8.5-5.9,8.5-17.1c0-11.2-8.5-14.8-8.5-17.1c0-2.2,8.5-5.9,8.5-17.1
		c0-4.7-3.8-8.5-8.5-8.5S256,3.8,256,8.5c0,2.3-8.5,5.8-8.5,17.1c0,11.3,8.5,14.8,8.5,17.1c0,2.3-8.5,5.9-8.5,17.1
		C247.5,64.4,251.3,68.3,256,68.3z"/>
	<path class="st7" d="M298.7,68.3c4.7,0,8.5-3.8,8.5-8.5c0-2.3,8.5-5.9,8.5-17.1c0-11.2-8.5-14.8-8.5-17.1c0-2.2,8.5-5.9,8.5-17.1
		c0-4.7-3.8-8.5-8.5-8.5s-8.5,3.8-8.5,8.5c0,2.3-8.5,5.8-8.5,17.1c0,11.3,8.5,14.8,8.5,17.1c0,2.3-8.5,5.9-8.5,17.1
		C290.1,64.4,294,68.3,298.7,68.3z"/>
</g>
</svg>
