<?xml version="1.0" encoding="utf-8"?>
<!-- Generator: Adobe Illustrator 22.1.0, SVG Export Plug-In . SVG Version: 6.00 Build 0)  -->
<svg version="1.1" id="Capa_1" xmlns="http://www.w3.org/2000/svg" xmlns:xlink="http://www.w3.org/1999/xlink" x="0px" y="0px"
	 viewBox="0 0 512 512" style="enable-background:new 0 0 512 512;" xml:space="preserve">
<style type="text/css">
	.st0{filter:url(#Adobe_OpacityMaskFilter);}
	.st1{fill:#CAD9FC;}
	.st2{fill:#E8EDFC;}
	.st3{fill:#FFFFFF;}
	.st4{fill:#428DFF;}
	.st5{mask:url(#SVGID_1_);}
	.st6{fill:#FF9933;}
</style>
<defs>
	<filter id="Adobe_OpacityMaskFilter" filterUnits="userSpaceOnUse" x="0.1" y="-0.2" width="511.9" height="512.1">
		<feColorMatrix  type="matrix" values="1 0 0 0 0  0 1 0 0 0  0 0 1 0 0  0 0 0 1 0"/>
	</filter>
</defs>
<mask maskUnits="userSpaceOnUse" x="0.1" y="-0.2" width="511.9" height="512.1" id="SVGID_1_">
	<g class="st0">
		<g id="_x30_14---Pizza-Slice">
			<g id="Layer_11" transform="translate(1)">
				<g>
					<path id="Shape" class="st1" d="M462.3,284.8l-57.5,29c-2.9,1.4-4.7,4.4-4.7,7.6v71.1c0.1,5-2.1,9.8-5.8,13
						c-3.8,3.3-8.8,4.8-13.7,4h-0.4c-8.5-1.7-14.5-9.3-14.2-18v-44.4c0-3-1.5-5.7-4.1-7.2c-2.5-1.5-5.7-1.7-8.3-0.3l-17.1,8.5
						c-2.9,1.4-4.7,4.4-4.7,7.6v105c0.1,5-2.1,9.8-5.8,13c-3.8,3.3-8.8,4.8-13.7,4h-0.4c-8.5-1.7-14.5-9.3-14.2-18v-78.3
						c0-3-1.5-5.7-4.1-7.2c-2.5-1.5-5.7-1.7-8.3-0.3L32,502c-6.5,3-14.2,1.6-19.2-3.5c-5-5.1-6.4-12.8-3.3-19.3
						c2-3.7,20.4-39.2,62.5-120.1c9.8,14.6,29.1,19.4,44.6,11c15.5-8.4,22-27.2,15.1-43.4c-6.1-12.4-19-20.1-32.9-19.5L234,48.6
						C241,55.6,373.4,102.4,462.3,284.8z"/>
					<path id="Shape_1_" class="st1" d="M340.3,187.7c0,18.9-15.3,34.1-34.1,34.1c-18.9,0-34.1-15.3-34.1-34.1s15.3-34.1,34.1-34.1
						C325.1,153.6,340.3,168.9,340.3,187.7z"/>
					<path id="Shape_2_" class="st1" d="M135.5,341.3c0,18.9-15.3,34.1-34.1,34.1s-34.1-15.3-34.1-34.1c0-18.9,15.3-34.1,34.1-34.1
						S135.5,322.5,135.5,341.3z"/>
					<path id="Shape_3_" class="st1" d="M280.6,307.2c0,18.9-15.3,34.1-34.1,34.1s-34.1-15.3-34.1-34.1c0-18.9,15.3-34.1,34.1-34.1
						S280.6,288.3,280.6,307.2z"/>
				</g>
				<path id="Shape_4_" class="st2" d="M293.4,219.3c-12.8-5.3-21.2-17.7-21.2-31.6c0-13.8,8.4-26.3,21.2-31.6
					c12.8,5.3,21.2,17.7,21.2,31.6C314.6,201.6,306.2,214,293.4,219.3z"/>
				<path id="Shape_5_" class="st2" d="M88.6,372.9c-12.8-5.3-21.2-17.7-21.2-31.6s8.4-26.3,21.2-31.6c12.8,5.3,21.2,17.7,21.2,31.6
					S101.4,367.6,88.6,372.9z"/>
				<path id="Shape_6_" class="st2" d="M233.7,338.8c-12.8-5.3-21.2-17.7-21.2-31.6s8.4-26.3,21.2-31.6
					c12.8,5.3,21.2,17.7,21.2,31.6S246.5,333.5,233.7,338.8z"/>
				<path id="Shape_7_" class="st1" d="M492.9,269.5l-30.6,15.4C374.5,104.4,239.4,53.9,234,48.6c15.2-29,11.9-23,16-30.6
					c4.2-8.4,14.5-11.8,22.9-7.6c99.9,50,175.9,128.8,227.9,236.3c2,4.1,2.3,8.8,0.8,13.1S497,267.5,492.9,269.5L492.9,269.5z"/>
				<path id="Shape_8_" class="st2" d="M484.3,273.8l-22,11C374.5,104.4,239.4,53.9,234,48.6l12.5-24.5c2.9-0.3,5.9,0.3,8.5,1.5
					c100.1,50.2,176.2,129.1,228.2,236.5C484.9,265.7,485.3,269.9,484.3,273.8z"/>
			</g>
			<g id="Layer_11_copy" transform="translate(1)">
				<path id="Shape_9_" class="st3" d="M259.6,48.6c14.7-28.1,11.5-22.1,16-30.6c0.8-1.6,2-3.1,3.3-4.4l-6.1-3.2
					c-8.4-4.2-18.6-0.8-22.9,7.6c-4.4,8.5-1.3,2.6-16,30.6c1.2,1.2,8.5,4.5,20,10.8L259.6,48.6z"/>
				<path id="Shape_10_" class="st3" d="M32,501.6l6.1-3.1c-5.2-5.2-6.4-13.2-3.1-19.7c2-3.7,20.4-39.2,62.5-120.1
					c-4.3-7.4-5.7-16.1-3.9-24.5c0-0.5,0-1,0-1.5c2.7-10.4,10.2-19,20.2-23c3.8-1.5,7.9-2.4,12-2.6h-1.5
					C136.6,283.9,225.1,114.3,254,59.7c-6.8-3.3-13.5-6.9-20-10.8L98.9,307.2h1.5c-4,0.2-8,1-11.7,2.5c-10.1,4-17.6,12.6-20.3,23.1
					c0,0.5,0,1,0,1.5c-1.8,8.2-0.5,16.8,3.7,24.1C29.9,439.3,11.5,474.8,9.5,478.5c-3.3,6.5-2.1,14.4,3,19.6
					C17.6,503.3,25.4,504.7,32,501.6z"/>
			</g>
			<g id="Layer_10" transform="translate(0 -1)">
				<path id="Rectangle-path" class="st3" d="M33.8,416.3l31.5-60.6l15.1,7.9l-31.5,60.6L33.8,416.3z"/>
				<g>
					<path id="Shape_11_" class="st4" d="M0.4,483.4c-1.3,8.3,1.6,16.7,7.7,22.5c6.1,5.8,14.7,8.2,22.9,6.4
						c4.9-1-8.5,5.1,259.1-129.6v10.8c0,73.9,0,69.6,1.1,74.8c2.9,11.8,13.8,19.9,25.9,19.4s22.2-9.4,24.2-21.4
						c0.6-2.9,0-5.5,0-109.4c0,0,15-7.6,17.1-8.5V392c-0.6,13.7,9.4,25.5,23,27.1c13.9,1.6,26.5-8.3,28.2-22.2c0-3.4,0,6.3,0-74.5
						c94.5-47.5,89.5-44.9,91.9-46.8c8.2-6,12.1-16.2,9.9-26.1c-0.7-2.8-1.7-5.5-3.2-8C467.4,160,414.4,91.7,337.6,39.1
						c-14.7-10.1-30-19.4-45.7-27.9C279.9,4.9,273.1-0.5,262.1,1c-14.6,2.8-18.7,14-23.1,23C173.4,149.6,136.5,220.3,94.6,300.5
						c-21.3,4-36.3,23.5-34.6,45.1c1.6,21.7,19.3,38.6,41,39.4s40.5-14.9,43.7-36.4c3.2-21.5-10.3-42-31.3-47.5
						c29.3-56.6,95.5-183.4,125.4-240.5c91.9,48,163.6,122.3,213.3,221.1c-54.5,27.5-52.5,25.6-55.6,29.8c-2.8,3.2-4.2,7.4-4.1,11.7
						v71.3c-0.6,4.6-4.8,7.8-9.4,7.3c-4.8-0.8-8.1-5.2-7.7-10v-42.7c0.3-6-2.5-11.7-7.5-15.1c-5-3.4-11.4-3.8-16.8-1.3
						c-7.3,3-14.3,6.7-20.9,11.1c-4,3.4-6.2,8.5-6,13.8v105.5c-0.7,3.2-3.1,5.7-6.3,6.5s-6.5-0.3-8.6-2.9c-2.8-3.8-2-7.3-2-20.6
						c0-71.3,0-64.1-0.5-68.3c-2.3-9-11.3-14.5-20.3-12.5c-7.3,2.2-256.8,129.7-259.4,130.2c-4.6,0.9-9.1-2-10.1-6.6
						c-1.2-4.2-0.9-2.6,31.7-65.2c1.1-3.8-0.7-7.9-4.2-9.8c-3.5-1.9-7.9-1.1-10.5,1.9C-2.5,486.1,2,477,0.4,483.4L0.4,483.4z
						 M128,342.3c0,14.1-11.5,25.6-25.6,25.6s-25.6-11.5-25.6-25.6c0-14.1,11.5-25.6,25.6-25.6S128,328.2,128,342.3z M246.5,45.9
						c12.4-23.7,12.1-23.4,12.8-24.3c2-2.6,5.3-3.9,8.5-3.2c20.7,10.1,40.7,21.8,59.7,34.8c57.1,39.5,105,90.7,140.5,150.4
						c12.2,19.7,25.6,47.3,26.2,48.2c0.9,2.1,1,4.4,0.1,6.6c-0.8,2.1-2.5,3.8-4.6,4.7L467,274.1C415.7,172.3,341.3,95.5,246.5,45.9
						L246.5,45.9z"/>
					<path id="Shape_12_" class="st4" d="M57.4,398.5c-4.7,0-8.5-3.8-8.5-8.5s3.8-8.5,8.5-8.5s8.5,3.8,8.5,8.5
						S62.1,398.5,57.4,398.5z"/>
					<path id="Shape_13_" class="st4" d="M68.3,180.2c0,4.7,3.8,8.5,8.5,8.5c4.7,0,8.5-3.8,8.5-8.5c0-2.3,8.5-5.9,8.5-17.1
						s-8.5-14.8-8.5-17.1c0-2.3,8.5-5.9,8.5-17.1c0-4.7-3.8-8.5-8.5-8.5s-8.5,3.8-8.5,8.5c0,2.3-8.5,5.9-8.5,17.1
						c0,11.2,8.5,14.8,8.5,17.1C76.8,165.4,68.3,169,68.3,180.2z"/>
					<path id="Shape_14_" class="st4" d="M119.5,120.5c0,4.7,3.8,8.5,8.5,8.5c4.7,0,8.5-3.8,8.5-8.5c0-2.3,8.5-5.9,8.5-17.1
						s-8.5-14.8-8.5-17.1c0-2.3,8.5-5.9,8.5-17.1c0-4.7-3.8-8.5-8.5-8.5s-8.5,3.8-8.5,8.5c0,2.3-8.5,5.9-8.5,17.1s8.5,14.8,8.5,17.1
						C128,105.7,119.5,109.3,119.5,120.5z"/>
					<path id="Shape_15_" class="st4" d="M335.3,268c-2.5,2.4-3.2,6.1-1.9,9.3c1.3,3.2,4.5,5.3,7.9,5.3c4.5,0,5.7-2.2,14.6-11
						c3.3-3.3,3.3-8.8,0-12.1c-3.3-3.3-8.8-3.3-12.1,0L335.3,268z"/>
					<path id="Shape_16_" class="st4" d="M249.9,110.4l-8.5,8.5c-3.3,3.3-3.3,8.7,0,12c1.6,1.6,3.8,2.5,6.1,2.5
						c2.3,0,4.5-0.9,6.1-2.5l8.5-8.5c3.3-3.3,3.3-8.7,0-12c-1.6-1.6-3.8-2.5-6.1-2.5C253.7,107.9,251.5,108.8,249.9,110.4z"/>
					<path id="Shape_17_" class="st4" d="M193.8,374c3.3-3.3,3.3-8.8,0-12.1c-3.3-3.3-8.8-3.3-12.1,0l-8.5,8.5
						c-2.5,2.4-3.2,6.1-1.9,9.3s4.5,5.3,7.9,5.3C183.7,385,184.9,382.8,193.8,374L193.8,374z"/>
					<path id="Shape_18_" class="st4" d="M204.8,308.2c0,23.6,19.1,42.7,42.7,42.7s42.7-19.1,42.7-42.7c0-23.6-19.1-42.7-42.7-42.7
						S204.8,284.6,204.8,308.2z M247.5,282.6c14.1,0,25.6,11.5,25.6,25.6c0,14.1-11.5,25.6-25.6,25.6s-25.6-11.5-25.6-25.6
						C221.9,294.1,233.3,282.6,247.5,282.6z"/>
					<path id="Shape_19_" class="st4" d="M307.2,146.1c-23.6,0-42.7,19.1-42.7,42.7s19.1,42.7,42.7,42.7c23.6,0,42.7-19.1,42.7-42.7
						c0-11.3-4.5-22.2-12.5-30.2C329.4,150.6,318.5,146.1,307.2,146.1z M307.2,214.3c-10.4,0-19.7-6.2-23.7-15.8
						c-4-9.6-1.8-20.6,5.5-27.9c7.3-7.3,18.3-9.5,27.9-5.5c9.6,4,15.8,13.3,15.8,23.7C332.8,202.9,321.3,214.3,307.2,214.3z"/>
				</g>
			</g>
		</g>
	</g>
</mask>
<g class="st5">
	<path class="st6" d="M511.4,248.6c-0.7-2.8-1.7-5.5-3.2-8C467.4,159,414.4,90.7,337.6,38.1c-14.7-10.1-30-19.4-45.7-27.9
		C279.9,3.9,273.1-1.5,262.1,0c-14.6,2.8-18.7,14-23.1,23C173.4,148.6,136.5,219.3,94.6,299.5c-21.3,4-36.3,23.5-34.6,45.1
		c0.4,4.8,1.5,9.5,3.4,13.7l-29.6,56.9l0.3,0.1C-2.5,485.1,2,476,0.4,482.4v0c-1.3,8.3,1.6,16.7,7.7,22.5s14.7,8.2,22.9,6.4
		c4.9-1-8.5,5.1,259.1-129.6v10.8c0,73.9,0,69.6,1.1,74.8c2.9,11.8,13.8,19.9,25.9,19.4s22.2-9.4,24.2-21.4c0.6-2.9,0-5.5,0-109.4
		c0,0,15-7.6,17.1-8.5V391c-0.6,13.7,9.4,25.5,23,27.1c13.9,1.6,26.5-8.3,28.2-22.2c0-3.4,0,6.3,0-74.5
		c94.5-47.5,89.5-44.9,91.9-46.8C509.7,268.7,513.6,258.5,511.4,248.6z"/>
	<path class="st6" d="M76.8,187.7c4.7,0,8.5-3.8,8.5-8.5c0-2.3,8.5-5.9,8.5-17.1c0-11.2-8.5-14.8-8.5-17.1c0-2.3,8.5-5.9,8.5-17.1
		c0-4.7-3.8-8.5-8.5-8.5s-8.5,3.8-8.5,8.5c0,2.3-8.5,5.9-8.5,17.1c0,11.2,8.5,14.8,8.5,17.1c0,2.3-8.5,5.9-8.5,17.1
		C68.3,183.9,72.1,187.7,76.8,187.7z"/>
	<path class="st6" d="M128,128c4.7,0,8.5-3.8,8.5-8.5c0-2.3,8.5-5.9,8.5-17.1c0-11.2-8.5-14.8-8.5-17.1c0-2.3,8.5-5.9,8.5-17.1
		c0-4.7-3.8-8.5-8.5-8.5s-8.5,3.8-8.5,8.5c0,2.3-8.5,5.9-8.5,17.1c0,11.2,8.5,14.8,8.5,17.1c0,2.3-8.5,5.9-8.5,17.1
		C119.5,124.2,123.3,128,128,128z"/>
</g>
</svg>
