<?xml version="1.0" encoding="utf-8"?>
<!-- Generator: Adobe Illustrator 22.1.0, SVG Export Plug-In . SVG Version: 6.00 Build 0)  -->
<svg version="1.1" id="Capa_1" xmlns="http://www.w3.org/2000/svg" xmlns:xlink="http://www.w3.org/1999/xlink" x="0px" y="0px"
	 viewBox="0 0 512 512" style="enable-background:new 0 0 512 512;" xml:space="preserve">
<style type="text/css">
	.st0{filter:url(#Adobe_OpacityMaskFilter);}
	.st1{fill:#E8EDFC;}
	.st2{fill:#CAD9FC;}
	.st3{fill:#FFFFFF;}
	.st4{fill:#428DFF;}
	.st5{mask:url(#SVGID_1_);fill:#DD6352;}
</style>
<defs>
	<filter id="Adobe_OpacityMaskFilter" filterUnits="userSpaceOnUse" x="0.2" y="0" width="511.6" height="512">
		<feColorMatrix  type="matrix" values="1 0 0 0 0  0 1 0 0 0  0 0 1 0 0  0 0 0 1 0"/>
	</filter>
</defs>
<mask maskUnits="userSpaceOnUse" x="0.2" y="0" width="511.6" height="512" id="SVGID_1_">
	<g class="st0">
		<g id="_x30_26---Cake">
			<g id="Layer_11" transform="translate(1 9)">
				<path id="Shape" class="st1" d="M451.3,170.2v85.3h-34.1c-9.4,0-17.1,7.6-17.1,17.1v17.1c-0.2,7-4.5,13.2-11.1,15.6
					c-6.5,2.4-13.9,0.7-18.6-4.5c-5.6-6.5-4.4-12.5-4.4-28.2c0-9.4-7.6-17.1-17.1-17.1H212.3c-9.4,0-17.1,7.6-17.1,17.1v93.9
					c-0.2,7-4.5,13.2-11.1,15.6c-6.5,2.4-13.9,0.7-18.6-4.5c-2.9-3.4-4.4-7.6-4.4-12v-92.9c0-9.4-7.6-17.1-17.1-17.1
					c-9.4,0-17.1,7.6-17.1,17.1v17.1c0.1,5.1-2.1,9.9-6,13.2c-3.9,3.3-9,4.7-14,3.8c-8.5-1.7-14.5-9.3-14.2-18v-16.1
					c0-9.4-7.6-17.1-17.1-17.1H24.6v-68.3c0-9.4,7.6-17.1,17.1-17.1L451.3,170.2z"/>
				<path id="Rectangle-path" class="st2" d="M425.7,170.2h25.6v85.3h-25.6V170.2z"/>
				<g>
					<path id="Shape_1_" class="st1" d="M502.5,443.3c0,9.4-7.6,17.1-17.1,17.1h-51.2c-29.9,34.1-120.3,34.1-179.2,34.1
						s-149.3,0-179.2-34.1H24.6c-9.4,0-17.1-7.6-17.1-17.1c0-9.4,7.6-17.1,17.1-17.1V255.5h51.2c9.4,0,17.1,7.6,17.1,17.1v16.1
						c-0.3,8.7,5.7,16.3,14.2,18c5,0.9,10.1-0.5,14-3.8c3.9-3.3,6.1-8.1,6-13.2v-17.1c0-9.4,7.6-17.1,17.1-17.1s17.1,7.6,17.1,17.1
						v92.9c0,4.4,1.6,8.7,4.4,12c4.7,5.2,12.1,7,18.6,4.5c6.5-2.4,10.9-8.6,11.1-15.6v-93.9c0-9.4,7.6-17.1,17.1-17.1h136.5
						c9.4,0,17.1,7.6,17.1,17.1v16.1c0,4.4,1.6,8.7,4.4,12c4.7,5.2,12.1,7,18.6,4.5c6.5-2.4,10.9-8.6,11.1-15.6v-17.1
						c0-9.4,7.6-17.1,17.1-17.1h34.1v-85.3h17.1c9.4,0,17.1,7.6,17.1,17.1v238.9C494.8,426.2,502.5,433.8,502.5,443.3z"/>
					<path id="Shape_2_" class="st1" d="M485.4,187.3v238.9h-34.1v-256h17.1C477.8,170.2,485.4,177.8,485.4,187.3z"/>
					<path id="Shape_3_" class="st1" d="M502.5,443.3c0,9.4-7.6,17.1-17.1,17.1H24.6c-9.4,0-17.1-7.6-17.1-17.1
						c0-9.4,7.6-17.1,17.1-17.1h460.8C494.8,426.2,502.5,433.8,502.5,443.3z"/>
				</g>
				<path id="Shape_4_" class="st2" d="M485.4,426.2h-25.6c9.4,0,17.1,7.6,17.1,17.1c0,9.4-7.6,17.1-17.1,17.1h25.6
					c4.5,0,8.8-1.8,12-5c4.9-4.9,6.3-12.2,3.7-18.6C498.5,430.4,492.3,426.2,485.4,426.2z"/>
				<path id="Shape_5_" class="st2" d="M434.2,460.3c-29.9,34.1-120.3,34.1-179.2,34.1s-149.3,0-179.2-34.1H434.2z"/>
				<path id="Shape_6_" class="st1" d="M161.1,272.6v68.3H24.6v-85.3h51.2c9.4,0,17.1,7.6,17.1,17.1v16.1c-0.3,8.7,5.7,16.3,14.2,18
					c5,0.9,10.1-0.5,14-3.8c3.9-3.3,6.1-8.1,6-13.2v-17.1c0-9.4,7.6-17.1,17.1-17.1S161.1,263.2,161.1,272.6z"/>
				<path id="Shape_7_" class="st1" d="M451.3,255.5v85.3h-256v-68.3c0-9.4,7.6-17.1,17.1-17.1h136.5c9.4,0,17.1,7.6,17.1,17.1v16.1
					c0,4.4,1.6,8.7,4.4,12c4.7,5.2,12.1,7,18.6,4.5c6.5-2.4,10.9-8.6,11.1-15.6v-17.1c0-9.4,7.6-17.1,17.1-17.1H451.3z"/>
				<path id="Shape_8_" class="st2" d="M340.3,272.6v16.1c-0.3,7.3,4,13.9,10.7,16.6c6.8,2.7,14.5,0.8,19.2-4.7
					c-5.5-6.4-4.4-11.8-4.4-28.1c0-9.4-7.6-17.1-17.1-17.1h-25.6C332.7,255.5,340.3,263.2,340.3,272.6L340.3,272.6z"/>
				<path id="Rectangle-path_1_" class="st2" d="M425.7,255.5h25.6v85.3h-25.6V255.5z"/>
				<path id="Shape_9_" class="st1" d="M451.3,340.9v85.3H24.6v-85.3h136.5v24.7c0,4.4,1.6,8.7,4.4,12c4.7,5.2,12.1,7,18.6,4.5
					c6.5-2.4,10.9-8.6,11.1-15.6v-25.6H451.3z"/>
				<path id="Rectangle-path_2_" class="st2" d="M425.7,340.9h25.6v85.3h-25.6V340.9z"/>
				<path id="Shape_10_" class="st1" d="M314.7,119c0,26.8-39.6,56.6-89.6,50.4c-36.5-4.5-64-27.5-64-50.4
					c0-26.4,17.7-42.7,34.1-42.7c25.6,0,25.6,8.5,42.7,8.5s17.1-8.5,42.7-8.5C297.7,76.3,314.7,93.4,314.7,119z"/>
				<path id="Shape_11_" class="st2" d="M280.6,76.3c-5.7-0.1-11.5,0.5-17.1,1.7c16.4,6.8,26.6,23.3,25.6,41c0,23-27.6,46-64.3,50.3
					c50,6.5,89.9-23.4,89.9-50.3C314.7,93.4,297.7,76.3,280.6,76.3z"/>
			</g>
			<g id="Layer_11_copy" transform="translate(1 21)">
				<path id="Shape_12_" class="st3" d="M24.6,175.3v238.9c-5,0-9.8,2.3-13,6.1c-4.2,5.1-5.1,12.1-2.4,18.1s8.7,9.8,15.3,9.9h25.6
					c-6.6-0.1-12.6-3.9-15.3-9.9s-1.8-13,2.4-18.1c3.2-3.9,8-6.1,13-6.1V175.3c0-9.4,7.6-17.1,17.1-17.1H41.7
					C32.2,158.2,24.6,165.8,24.6,175.3L24.6,175.3z"/>
				<path id="Shape_13_" class="st3" d="M392.6,282.6c0,0.2,0,0.4,0,0.6C392.6,283.2,392.6,282.9,392.6,282.6z"/>
			</g>
			<path id="Rectangle-path_3_" class="st3" d="M42.7,170.7h68.3v17.1H42.7V170.7z"/>
			<g>
				<circle id="Oval" class="st4" cx="418.1" cy="401.1" r="8.5"/>
				<circle id="Oval_1_" class="st4" cx="315.7" cy="401.1" r="8.5"/>
				<circle id="Oval_2_" class="st4" cx="221.9" cy="401.1" r="8.5"/>
				<circle id="Oval_3_" class="st4" cx="366.9" cy="384" r="8.5"/>
				<circle id="Oval_4_" class="st4" cx="264.5" cy="384" r="8.5"/>
				<circle id="Oval_5_" class="st4" cx="110.9" cy="401.1" r="8.5"/>
				<circle id="Oval_6_" class="st4" cx="59.7" cy="384" r="8.5"/>
				<path id="Shape_14_" class="st4" d="M25.6,477.9h47.8C108.1,512,196.7,512,256,512s147.9,0,182.6-34.1h47.8
					c12.4-0.1,22.9-9.1,25-21.3s-4.9-24.2-16.5-28.4V196.3c0-14.1-11.5-25.6-25.6-25.6h-172c15.5-8.9,25.6-24.8,27-42.7
					c0-31.7-22.2-51.2-42.7-51.2C270,76.6,258.4,79,247.9,84c1.8-21.2,10.2-66.9,50.8-66.9c4.7,0,8.5-3.8,8.5-8.5S303.4,0,298.7,0
					c-46.7,0-65.5,43.4-68.3,84.2c-10.7-5-22.3-7.5-34.1-7.4c-20.5,0-42.7,19.5-42.7,51.2c1.3,17.8,11.4,33.8,27,42.7h-69.6
					c-4.7,0-8.5,3.8-8.5,8.5s3.8,8.5,8.5,8.5h332.8V256h-25.6c-14.1,0-25.6,11.5-25.6,25.6v17.1c0,2.5-1.1,5-3,6.6
					c-1.9,1.6-4.5,2.4-7,1.9c-4.3-1.1-7.2-5-7.1-9.4v-16.2c0-14.1-11.5-25.6-25.6-25.6H213.3c-14.1,0-25.6,11.5-25.6,25.6v93.9
					c0,2.5-1.1,5-3,6.6c-1.9,1.6-4.5,2.4-7,1.9c-4.3-1.1-7.2-5-7.1-9.4v-93c0-14.1-11.5-25.6-25.6-25.6c-14.1,0-25.6,11.5-25.6,25.6
					v17.1c-0.2,3-1.9,5.8-4.7,7.2c-2.7,1.4-6,1.2-8.5-0.5c-2.6-1.7-4-4.6-3.9-7.6v-16.1c0-14.1-11.5-25.6-25.6-25.6H34.1v-59.7
					c0-4.7,3.8-8.5,8.5-8.5s8.5-3.8,8.5-8.5c0-16.3-34.1-8.5-34.1,17.1v231.9c-11.6,4.2-18.6,16.2-16.5,28.4S13.2,477.8,25.6,477.9
					L25.6,477.9z M170.7,128c0-21.1,13.3-34.1,25.6-34.1c23,0,23.8,8.5,42.7,8.5c18.9,0,19.3-8.5,42.7-8.5
					c12.3,0,25.6,13.1,25.6,34.1c0,19.7-29.8,42.7-68.3,42.7S170.7,147.7,170.7,128z M256,494.9c-44.5,0-113.5,0-152.1-17.1h304.1
					C369.5,494.9,300.5,494.9,256,494.9z M477.9,196.3v230.4h-17.1V187.7h8.5C474,187.7,477.9,191.6,477.9,196.3z M213.3,273.1
					h136.5c4.7,0,8.5,3.8,8.5,8.5v16.1c-0.3,12.9,8.7,24.1,21.3,26.5c7.5,1.3,15.2-0.9,20.9-5.8c5.8-4.9,9-12.2,8.9-19.8v-17.1
					c0-4.7,3.8-8.5,8.5-8.5h25.6v68.3H204.8v-59.7C204.8,276.9,208.6,273.1,213.3,273.1z M174.9,401.1c7.5,1.3,15.2-0.9,20.9-5.8
					c5.8-4.9,9-12.2,8.9-19.8v-17.1h238.9v68.3H34.1v-68.3h119.5v16.1C153.3,387.4,162.3,398.6,174.9,401.1z M76.8,273.1
					c4.7,0,8.5,3.8,8.5,8.5v16.1c-0.2,9.1,4.6,17.7,12.4,22.4s17.6,4.9,25.6,0.5c8-4.4,13-12.8,13.2-21.9v-17.1
					c0-4.7,3.8-8.5,8.5-8.5c4.7,0,8.5,3.8,8.5,8.5v59.7H34.1v-68.3H76.8z M25.6,443.7h460.8c4.7,0,8.5,3.8,8.5,8.5
					c0,4.7-3.8,8.5-8.5,8.5H25.6c-4.7,0-8.5-3.8-8.5-8.5C17.1,447.6,20.9,443.7,25.6,443.7z"/>
				<path id="Shape_15_" class="st4" d="M76.8,187.7c-4.7,0-8.5-3.8-8.5-8.5s3.8-8.5,8.5-8.5c4.7,0,8.5,3.8,8.5,8.5
					S81.5,187.7,76.8,187.7z"/>
				<path id="Shape_16_" class="st4" d="M216.3,115.4c-5.5-2.8-11.5-4.3-17.6-4.4c-4.7,0-8.5,3.8-8.5,8.5s3.8,8.5,8.5,8.5
					c2.7-0.1,5.5,0.5,7.9,1.7c2.2,1.2,4.6,1.9,7.1,2.2c4.1-0.2,7.5-3.2,8.1-7.2S220.2,116.8,216.3,115.4L216.3,115.4z"/>
			</g>
		</g>
	</g>
</mask>
<path class="st5" d="M494.9,428.2V196.3c0-14.1-11.5-25.6-25.6-25.6h-172c15.5-8.9,25.6-24.8,27-42.7c0-31.7-22.2-51.2-42.7-51.2
	C270,76.6,258.4,79,247.9,84c1.8-21.2,10.2-66.9,50.8-66.9c4.7,0,8.5-3.8,8.5-8.5S303.4,0,298.7,0c-46.7,0-65.5,43.4-68.3,84.2
	c-10.7-5-22.3-7.5-34.1-7.4c-20.5,0-42.7,19.5-42.7,51.2c1.3,17.8,11.4,33.8,27,42.7h-69.6H42.7v0.1c-10.1-0.9-25.6,8.3-25.6,25.5
	v231.9c-11.6,4.2-18.6,16.2-16.5,28.4s12.6,21.2,25,21.3h47.8C108.1,512,196.7,512,256,512c59.3,0,147.9,0,182.6-34.1h47.8
	c12.4-0.1,22.9-9.1,25-21.3S506.6,432.4,494.9,428.2z"/>
</svg>
