<?xml version="1.0" encoding="utf-8"?>
<!-- Generator: Adobe Illustrator 22.1.0, SVG Export Plug-In . SVG Version: 6.00 Build 0)  -->
<svg version="1.1" id="Capa_1" xmlns="http://www.w3.org/2000/svg" xmlns:xlink="http://www.w3.org/1999/xlink" x="0px" y="0px"
	 viewBox="0 0 512 512" style="enable-background:new 0 0 512 512;" xml:space="preserve">
<style type="text/css">
	.st0{filter:url(#Adobe_OpacityMaskFilter);}
	.st1{fill:#CAD9FC;}
	.st2{fill:#E8EDFC;}
	.st3{fill:#FFFFFF;}
	.st4{fill:#428DFF;}
	.st5{mask:url(#SVGID_1_);fill:#E8B567;}
</style>
<defs>
	<filter id="Adobe_OpacityMaskFilter" filterUnits="userSpaceOnUse" x="0" y="-0.1" width="512" height="512.1">
		<feColorMatrix  type="matrix" values="1 0 0 0 0  0 1 0 0 0  0 0 1 0 0  0 0 0 1 0"/>
	</filter>
</defs>
<mask maskUnits="userSpaceOnUse" x="0" y="-0.1" width="512" height="512.1" id="SVGID_1_">
	<g class="st0">
		<g id="_x30_22---Pie-Slice">
			<g id="Layer_11" transform="translate(1 1)">
				<path id="Shape" class="st1" d="M451.3,152.6v281.6c0,9.4-7.6,17.1-17.1,17.1H7.5V169.7c0-9.4,7.6-17.1,17.1-17.1H451.3z"/>
				<g>
					<path id="Shape_1_" class="st2" d="M425.7,152.6v281.6c0,9.4-7.6,17.1-17.1,17.1H7.5V169.7c0-9.4,7.6-17.1,17.1-17.1H425.7z"/>
					<circle id="Oval" class="st2" cx="92.9" cy="383" r="17.1"/>
					<circle id="Oval_1_" class="st2" cx="169.7" cy="297.7" r="17.1"/>
					<circle id="Oval_2_" class="st2" cx="289.1" cy="383" r="17.1"/>
					<circle id="Oval_3_" class="st2" cx="365.9" cy="297.7" r="17.1"/>
					<circle id="Oval_4_" class="st2" cx="246.5" cy="212.3" r="17.1"/>
				</g>
				<path id="Shape_2_" class="st1" d="M502.5,135.5v315.7c0,28.3-22.9,51.2-51.2,51.2H24.6c-9.4,0-17.1-7.6-17.1-17.1v-34.1h426.7
					c9.4,0,17.1-7.6,17.1-17.1V151.9c0-3.6,1.2-7,3.3-9.9c5.9-8.5,13.5-15.7,22.3-21.2c5.3-3,11.7-3,17,0
					C499.2,123.9,502.4,129.5,502.5,135.5z"/>
				<path id="Shape_3_" class="st2" d="M476.9,135.5v315.7c0,28.3-22.9,51.2-51.2,51.2H24.6c-9.4,0-17.1-7.6-17.1-17.1v-34.1h426.7
					c9.4,0,17.1-7.6,17.1-17.1V151.9c0-3.6,1.2-7,3.3-9.9c4.8-6.9,10.8-13,17.6-18.1C475.2,127.1,476.8,131.2,476.9,135.5
					L476.9,135.5z"/>
				<path id="Shape_4_" class="st2" d="M314.7,152.6h-76.8c-34.1,0-59.7-17.1-59.7-42.7c1.3-18.3,15.8-32.9,34.1-34.1
					c25.6,0,34.1,25.6,102.4,25.6C314.7,101.4,348.9,118.5,314.7,152.6z"/>
				<path id="Shape_5_" class="st1" d="M314.7,101.4c-18.4,0.4-36.7-2.2-54.3-7.6c-25.6-8.5-38.9-24.3-59.7-15.3
					c17.5,6.6,34.1,22.9,88.5,22.9c0,0,34.1,17.1,0,51.2h25.6C348.9,118.5,314.7,101.4,314.7,101.4z"/>
				<path id="Shape_6_" class="st2" d="M314.7,101.4c-66.6,0-75.8-23.9-99.9-25.6c-3.2-0.7-1.9,1.1-3.5-2.4
					c-8-19.1-13.4-39.2-16-59.7c-0.3-2.2,0.9-4.4,2.9-5.4c2-1,4.5-0.6,6.1,0.9c10,10.2,28.2,30.6,55.1,38.1c6.9,1.9,14,2.9,21.2,2.9
					C314.7,50.2,323.3,75.8,314.7,101.4z"/>
				<path id="Shape_7_" class="st1" d="M280.6,50.2c-7.2,0-14.3-1.1-21.2-3c-27-7.5-45.1-28-55.1-38.1c-1.6-1.6-4.1-1.9-6.1-0.9
					c-2,1-3.2,3.2-2.9,5.4c0.5,4.6,1.2,9,2,13.3c15.8,14.5,36.3,22.8,57.7,23.3c33.5,0,42.7,24.7,34.1,49.8c8.5,1,17,1.4,25.6,1.4
					C323.3,75.8,314.7,50.2,280.6,50.2z"/>
			</g>
			<path id="Shape_8_" class="st3" d="M34.1,486.4V170.7c0-9.4,7.6-17.1,17.1-17.1H25.6c-9.4,0-17.1,7.6-17.1,17.1v315.7
				c0,9.4,7.6,17.1,17.1,17.1h25.6C41.8,503.5,34.1,495.8,34.1,486.4z"/>
			<g id="Layer_10" transform="translate(-1 -1)">
				<path id="Rectangle-path" class="st3" d="M1,171.7h17.1v68.3H1V171.7z"/>
				<g>
					<path id="Shape_9_" class="st4" d="M94.9,410.6c14.1,0,25.6-11.5,25.6-25.6c0-14.1-11.5-25.6-25.6-25.6S69.3,370.9,69.3,385
						C69.3,399.1,80.7,410.6,94.9,410.6z M94.9,376.5c4.7,0,8.5,3.8,8.5,8.5s-3.8,8.5-8.5,8.5c-4.7,0-8.5-3.8-8.5-8.5
						S90.2,376.5,94.9,376.5z"/>
					<path id="Shape_10_" class="st4" d="M171.7,325.3c14.1,0,25.6-11.5,25.6-25.6c0-14.1-11.5-25.6-25.6-25.6
						c-14.1,0-25.6,11.5-25.6,25.6C146.1,313.8,157.5,325.3,171.7,325.3z M171.7,291.1c4.7,0,8.5,3.8,8.5,8.5s-3.8,8.5-8.5,8.5
						c-4.7,0-8.5-3.8-8.5-8.5S167,291.1,171.7,291.1z"/>
					<path id="Shape_11_" class="st4" d="M291.1,410.6c14.1,0,25.6-11.5,25.6-25.6c0-14.1-11.5-25.6-25.6-25.6
						c-14.1,0-25.6,11.5-25.6,25.6C265.5,399.1,277,410.6,291.1,410.6z M291.1,376.5c4.7,0,8.5,3.8,8.5,8.5s-3.8,8.5-8.5,8.5
						c-4.7,0-8.5-3.8-8.5-8.5S286.4,376.5,291.1,376.5z"/>
					<path id="Shape_12_" class="st4" d="M342.3,299.7c0,14.1,11.5,25.6,25.6,25.6s25.6-11.5,25.6-25.6c0-14.1-11.5-25.6-25.6-25.6
						S342.3,285.5,342.3,299.7z M367.9,291.1c4.7,0,8.5,3.8,8.5,8.5s-3.8,8.5-8.5,8.5s-8.5-3.8-8.5-8.5S363.2,291.1,367.9,291.1z"/>
					<path id="Shape_13_" class="st4" d="M248.5,188.7c-14.1,0-25.6,11.5-25.6,25.6s11.5,25.6,25.6,25.6s25.6-11.5,25.6-25.6
						S262.6,188.7,248.5,188.7z M248.5,222.9c-4.7,0-8.5-3.8-8.5-8.5s3.8-8.5,8.5-8.5c4.7,0,8.5,3.8,8.5,8.5
						S253.2,222.9,248.5,222.9z"/>
					<circle id="Oval_5_" class="st4" cx="77.8" cy="231.4" r="8.5"/>
					<circle id="Oval_6_" class="st4" cx="154.6" cy="205.8" r="8.5"/>
					<circle id="Oval_7_" class="st4" cx="265.5" cy="291.1" r="8.5"/>
					<circle id="Oval_8_" class="st4" cx="385" cy="385" r="8.5"/>
					<circle id="Oval_9_" class="st4" cx="103.4" cy="308.2" r="8.5"/>
					<circle id="Oval_10_" class="st4" cx="359.4" cy="214.3" r="8.5"/>
					<circle id="Oval_11_" class="st4" cx="188.7" cy="385" r="8.5"/>
					<path id="Shape_14_" class="st4" d="M474.3,115.6c-12.1,7.3-21.9,17.9-28.2,30.5H334.4c10.6-14.9,7.1-35.6-7.8-46.3
						c7.2-30.5-8.7-56.1-44-56.1c-30,0-50.6-18.3-70.2-38.6c-4.1-4.3-10.5-5.4-15.9-2.8s-8.5,8.3-7.7,14.2
						c2.2,18.8,6.8,37.2,13.7,54.8c-17.6,6-29.8,22.1-30.7,40.7c0,13.1,5.7,25.6,15.7,34.1H26.6c-25.6,0-33.5,34.1-17.1,34.1
						c4.7,0,8.5-3.8,8.5-8.5c0-4.7,3.8-8.5,8.5-8.5h418.1v273.1c0,4.7-3.8,8.5-8.5,8.5H18.1V239.9c0-4.7-3.8-8.5-8.5-8.5
						S1,235.2,1,239.9v247.5C1,501.5,12.5,513,26.6,513h426.7c33,0,59.7-26.7,59.7-59.7V137.5c0-9.2-5-17.7-13-22.2
						C492,110.8,482.2,110.9,474.3,115.6z M282.6,60.7c22.6,0,32,12.8,27.5,34.1c-56.4-1.5-64.7-21.6-89.9-25
						c-6-14.7-10.4-30-13.1-45.7C221.8,39,246.6,60.7,282.6,60.7z M239.9,146.1c-30.1,0-51.2-14.1-51.2-34.1
						c1.2-13.6,12-24.4,25.6-25.6c21.2,0,33,25,100,25.6c14.1,9.4,10.2,21.7-1.3,34.1H239.9z M495.9,453.3
						c0,23.6-19.1,42.7-42.7,42.7H26.6c-4.7,0-8.5-3.8-8.5-8.5v-25.6h418.1c14.1,0,25.6-11.5,25.6-25.6c0-301.1-0.9-283.6,1.7-287.1
						c5.1-7.6,11.8-14,19.5-18.9c2.6-1.6,5.9-1.6,8.6-0.1s4.3,4.3,4.3,7.4V453.3z"/>
					<path id="Shape_15_" class="st4" d="M9.5,214.3c-4.7,0-8.5-3.8-8.5-8.5c0-4.7,3.8-8.5,8.5-8.5s8.5,3.8,8.5,8.5
						C18.1,210.5,14.2,214.3,9.5,214.3z"/>
				</g>
			</g>
		</g>
	</g>
</mask>
<path class="st5" d="M499,114.3c-8-4.5-17.8-4.4-25.8,0.3c-12.1,7.3-21.9,17.9-28.2,30.5H333.4c10.6-14.9,7.1-35.6-7.8-46.3
	c7.2-30.5-8.7-56.1-44-56.1c-30,0-50.6-18.3-70.2-38.6c-4.1-4.3-10.5-5.4-15.9-2.8c-5.4,2.6-8.5,8.3-7.7,14.2
	c2.2,18.8,6.8,37.2,13.7,54.8c-17.6,6-29.8,22.1-30.7,40.7c0,13.1,5.7,25.6,15.7,34.1H25.6c-17.3,0-26.4,15.5-25.6,25.6h0v68.3
	v247.5C0,500.5,11.5,512,25.6,512h426.7c33,0,59.7-26.7,59.7-59.7V136.5C512,127.3,507,118.8,499,114.3z"/>
</svg>
